<?xml version="1.0" encoding="UTF-8"?> <svg xmlns="http://www.w3.org/2000/svg" xmlns:xlink="http://www.w3.org/1999/xlink" width="1070px" height="185px" viewBox="0 0 1070 185"><!-- Generator: Sketch 60.1 (88133) - https://sketch.com --><title>Kustomer_Logo</title><desc>Created with Sketch.</desc><defs><polygon id="path-1" points="0.120903955 0.85 1069.07307 0.85 1069.07307 184 0.120903955 184"></polygon></defs><g id="Kustomer_Logo" stroke="none" stroke-width="1" fill="none" fill-rule="evenodd"><g id="Group" transform="translate(0.000000, 1.000000)"><path d="M249.062147,30.0880435 C249.062147,25.8913587 251.169906,23.7940217 255.389454,23.7940217 L261.434652,23.7940217 C265.652185,23.7940217 267.761959,25.8913587 267.761959,30.0880435 L267.761959,80.5608696 L288.053672,80.5608696 L319.750659,28.0771739 C321.132994,25.2780435 324.091111,23.6110326 327.206403,23.8744565 L334.299435,23.8744565 C339.276648,23.8744565 341.19096,27.1320652 338.712429,31.5157609 L303.650282,87.8201087 L303.650282,88.2021739 L341.150659,151.303261 C343.830697,155.505978 341.916384,158.743478 336.939171,158.743478 L329.060264,158.743478 C325.912731,158.928478 322.966704,157.19712 321.60452,154.359783 L288.134275,96.8288043 L267.842561,96.8288043 L267.842561,152.429348 C267.842561,156.652174 265.726742,158.743478 261.515254,158.743478 L255.470056,158.743478 C251.258569,158.743478 249.14275,156.732609 249.14275,152.429348 L249.062147,30.0880435" id="Fill-1" fill="#0A0B09"></path><path d="M357.654049,68.2945652 C357.654049,64.0978804 359.763823,62.0005435 363.981356,62.0005435 L369.9258,62.0005435 C373.955932,62.0005435 375.970998,64.011413 375.970998,68.2945652 L375.970998,119.752717 C375.970998,133.145109 378.832392,143.883152 394.106591,143.883152 C414.015443,143.883152 425.702825,126.48913 425.702825,107.38587 L425.702825,68.2945652 C425.702825,64.0978804 427.812599,62.0005435 432.030132,62.0005435 L437.954426,62.0005435 C439.709548,61.7351087 441.486836,62.3041848 442.758343,63.5408696 C444.027834,64.7775543 444.644444,66.5370652 444.422787,68.2945652 L444.422787,152.38913 C444.642429,154.120489 444.04597,155.85788 442.808719,157.092554 C441.571469,158.327228 439.830452,158.920435 438.09548,158.703261 L432.735405,158.703261 C428.523917,158.703261 426.428249,156.692391 426.428249,152.38913 L426.428249,143.802717 C426.446384,141.938641 426.6358,140.080598 426.992467,138.252717 L426.609605,138.252717 C419.933691,152.06337 405.967269,160.885054 390.600377,160.993641 C368.777213,160.993641 357.654049,149.533696 357.654049,123.915217 L357.654049,68.2945652" id="Fill-2" fill="#0A0B09"></path><path d="M466.084746,141.932609 L467.999058,139.258152 C470.477589,136.000543 472.976271,135.819565 476.804896,137.91087 C483.750829,142.855598 492.03275,145.58837 500.562524,145.75125 C510.134087,145.75125 517.025612,141.168478 517.025612,132.944022 C517.025612,114.021739 467.031827,120.33587 467.031827,87.6391304 C467.031827,69.3 483.152354,59.7483696 502.093974,59.7483696 C511.558738,59.6076087 520.862298,62.1915761 528.89435,67.188587 C532.340113,68.9179348 532.924482,72.1755435 530.909416,75.6141304 L529.17646,78.4695652 C527.161394,81.9081522 524.400753,82.2902174 520.753484,80.4804348 C514.802994,76.8829891 507.984011,74.9646196 501.025989,74.9304348 C491.837288,74.9304348 484.744256,78.9521739 484.744256,87.1565217 C484.744256,106.480978 534.738041,99.5816848 534.738041,132.461413 C534.738041,148.910326 520.753484,160.935326 499.877401,160.935326 C488.167853,161.041902 476.740414,157.349946 467.313936,150.418478 C464.06968,148.425707 463.948776,145.170109 466.084746,141.932609" id="Fill-3" fill="#0A0B09"></path><path d="M559.906215,78.0875 L553.196045,78.0875 C551.505405,78.2363043 549.83693,77.6109239 548.662147,76.3863043 C547.487363,75.1636957 546.92919,73.4725543 547.150847,71.7934783 L547.150847,69.3 C546.931205,67.5666304 547.527665,65.83125 548.764915,64.5945652 C550.002166,63.3619022 551.741168,62.7666848 553.478154,62.9858696 L560.36968,62.9858696 L560.36968,41.7711957 C560.158098,40.0418478 560.756573,38.3104891 561.991808,37.0818478 C563.229058,35.8511957 564.966045,35.26 566.696987,35.4771739 L572.238418,35.4771739 C576.457966,35.4771739 578.565725,37.5745109 578.565725,41.7711957 L578.565725,62.9858696 L595.411676,62.9858696 C597.146648,62.7666848 598.88968,63.3619022 600.124915,64.5945652 C601.362166,65.83125 601.958625,67.5666304 601.738983,69.3 L601.738983,71.7934783 C601.958625,73.4725543 601.404482,75.1636957 600.229699,76.3863043 C599.054915,77.6109239 597.384426,78.2363043 595.693785,78.0875 L578.646328,78.0875 L578.646328,121.1 C578.646328,139.43913 589.950847,142.312663 597.023729,142.877717 C602.000942,143.259783 603.733898,144.888587 603.733898,149.191848 L603.733898,153.213587 C603.733898,157.617391 601.235217,159.527717 596.076648,159.527717 C576.913371,159.527717 560.06742,148.447826 560.06742,123.975543 L559.906215,78.0875" id="Fill-4" fill="#0A0B09"></path><path d="M665.576271,144.98712 C683.973823,144.98712 698.905461,130.470652 698.905461,110.201087 C698.905461,89.9315217 684.014124,75.7951087 665.576271,75.7951087 C647.138418,75.7951087 632.267232,90.1326087 632.267232,110.201087 C632.267232,130.269565 647.440678,144.98712 665.576271,144.98712 Z M665.576271,59.7483696 C694.512618,59.7483696 717.967985,80.9630435 717.967985,110.201087 C717.967985,139.43913 694.613371,161.03587 665.576271,161.03587 C636.539171,161.03587 613.486817,139.640217 613.486817,110.201087 C613.486817,80.7619565 636.700377,59.7483696 665.576271,59.7483696 L665.576271,59.7483696 Z" id="Fill-5" fill="#0A0B09"></path><path d="M738.400753,68.2945652 C738.187156,66.5652174 738.785631,64.8338587 740.024896,63.6052174 C741.260132,62.3745652 742.995104,61.7833696 744.72806,62.0005435 L750.088136,62.0005435 C754.293578,62.0005435 756.395292,64.0978804 756.395292,68.2945652 L756.395292,76.9413043 C756.377156,78.8033696 756.18774,80.661413 755.831073,82.4913043 L756.254237,82.4913043 C761.050094,71.2103261 774.631638,59.7483696 789.96629,59.7483696 C806.248023,59.7483696 815.618079,67.188587 819.063842,81.7271739 L819.446704,81.7271739 C825.854614,68.590163 839.067401,60.1143478 853.702825,59.7483696 C875.727495,59.7483696 885.681921,72.1755435 885.681921,96.8288043 L885.681921,152.429348 C885.681921,156.652174 883.666855,158.743478 879.354614,158.743478 L873.43032,158.743478 C871.693333,158.962663 869.954331,158.367446 868.717081,157.132772 C867.479831,155.898098 866.885386,154.160707 867.103013,152.429348 L867.103013,100.828424 C867.103013,87.2570652 864.422976,76.5592391 850.055556,76.5592391 C832.061017,76.5592391 821.320716,95.0994565 821.320716,113.639674 L821.320716,152.429348 C821.320716,156.652174 819.30565,158.743478 815.275518,158.743478 L809.23032,158.743478 C805.200188,158.743478 803.185122,156.732609 803.185122,152.429348 L803.185122,100.828424 C803.185122,88.2222826 801.27081,76.5592391 786.339171,76.5592391 C767.94162,76.5592391 757.221469,95.6826087 757.221469,113.639674 L757.221469,152.429348 C757.221469,156.652174 755.10565,158.743478 750.894162,158.743478 L744.969868,158.743478 C743.232881,158.962663 741.493879,158.367446 740.256629,157.132772 C739.019379,155.898098 738.424934,154.160707 738.642561,152.429348 L738.400753,68.2945652" id="Fill-6" fill="#0A0B09"></path><path d="M976.641996,99.9657609 C976.077778,83.0543478 965.921846,74.3271739 953.085876,74.3271739 C938.980414,74.3271739 927.434087,83.8788043 924.754049,100.12663 L976.641996,99.9657609 Z M953.468738,59.7483696 C980.289266,59.7483696 995.221185,78.8516304 995.221185,105.797283 C995.237024,107.52663 994.557947,109.18962 993.334802,110.414239 C992.109642,111.638859 990.445198,112.322554 988.712241,112.310489 L923.988324,112.310489 C925.136911,133.326087 940.249906,144.98712 957.49887,144.98712 C965.835198,144.926793 973.941808,142.254348 980.672128,137.347826 C984.319397,135.336957 987.180791,135.819565 989.29661,139.358696 L991.009416,142.232228 C992.000829,143.573478 992.349435,145.284728 991.960527,146.905489 C991.573635,148.524239 990.485499,149.89163 988.99435,150.639674 C979.388531,157.327826 967.963107,160.927283 956.249529,160.955435 C925.801883,160.955435 904.9258,138.97663 904.9258,110.29962 C905.026554,79.6157609 925.902637,59.7483696 953.468738,59.7483696 L953.468738,59.7483696 Z" id="Fill-7" fill="#0A0B09"></path><g id="Group-13"><mask id="mask-2" fill="white"><use xlink:href="#path-1"></use></mask><g id="Clip-9"></g><path d="M1015.53277,68.2945652 C1015.31313,66.5672283 1015.90757,64.8358696 1017.14079,63.6052174 C1018.37401,62.3725543 1020.10898,61.7813587 1021.83992,62.0005435 L1027.2,62.0005435 C1031.43164,62.0005435 1033.52731,64.011413 1033.52731,68.2945652 L1033.52731,79.3945652 C1033.52529,81.8236957 1033.33588,84.2508152 1032.96309,86.6538043 L1033.34595,86.6538043 C1037.55744,73.8425543 1048.45895,61.236413 1063.02787,61.236413 C1067.42072,61.236413 1069.07307,63.2472826 1069.07307,67.5304348 L1069.07307,72.9195652 C1069.07307,77.1423913 1066.57439,79.2336957 1062.18154,79.2336957 C1043.21977,79.2336957 1033.97062,99.6842391 1033.97062,118.807609 L1033.97062,152.429348 C1033.97062,156.652174 1031.95556,158.743478 1027.64331,158.743478 L1021.59812,158.743478 C1019.86516,158.95462 1018.13019,158.357391 1016.89898,157.124728 C1015.66778,155.890054 1015.07333,154.156685 1015.29096,152.429348 L1015.53277,68.2945652" id="Fill-8" fill="#0A0B09" mask="url(#mask-2)"></path><path d="M127.896234,184.000182 C159.26275,184.078424 184.775499,158.813859 184.94275,127.514674 L184.94275,57.3353261 C184.775499,26.0361413 159.26275,0.771576087 127.896234,0.849817916 L57.0263653,0.849817916 C25.6638795,0.771576087 0.155160075,26.0381522 0,57.3353261 L0,127.514674 C0.155160075,158.811848 25.6638795,184.078424 57.0263653,184.000182 L127.896234,184.000182" id="Fill-10" fill="#FFFFFE" mask="url(#mask-2)"></path><path d="M102.546704,66.9271739 L102.546704,92.3043478 C102.55275,93.6858152 103.106893,95.0069565 104.090245,95.9802174 C105.071582,96.9534783 106.401525,97.496413 107.785876,97.4904302 L124.853484,97.4904302 C126.233804,97.496413 127.559718,96.9534783 128.535009,95.9782065 C129.512316,95.0049457 130.056384,93.6817935 130.052376,92.3043478 L130.052376,75.3728261 C130.056384,73.9953804 129.512316,72.6722283 128.535009,71.6989674 C127.559718,70.7236957 126.233804,70.17875 124.853484,70.1847826 L112.944444,70.1847826 L112.944444,66.8668478 C113.010942,60.357663 118.330716,55.1213587 124.853484,55.1434783 C127.724953,55.1434783 130.052376,52.818913 130.052376,49.9554348 C130.052376,47.0899457 127.724953,44.7669249 124.853484,44.7669249 C118.953371,44.7291848 113.282976,47.0396739 109.095669,51.1880978 C104.908362,55.3365217 102.55275,60.9790217 102.546704,66.8668478 L102.546704,66.9271739 Z M54.8903955,66.9271739 L54.8903955,92.3043478 C54.8903955,93.6838043 55.4405085,95.0069565 56.4198305,95.9782065 C57.3991525,96.9534783 58.727081,97.496413 60.1094162,97.4904302 L77.1770245,97.4904302 C78.5613748,97.496413 79.8913183,96.9534783 80.8726554,95.9802174 C81.8560075,95.0069565 82.4101507,93.6858152 82.4161959,92.3043478 L82.4161959,75.3728261 C82.4161959,73.9893478 81.8620527,72.6641848 80.8787006,71.688913 C79.8953484,70.7156522 78.5633898,70.1727174 77.1770245,70.1847826 L65.3485876,70.1847826 L65.3485876,66.8668478 C65.4029944,60.3838043 70.680452,55.1535326 77.1770245,55.1434783 C80.0484934,55.1434783 82.3758945,52.818913 82.3758945,49.9554348 C82.3758945,47.0899457 80.0484934,44.76706 77.1770245,44.76706 C71.2809416,44.7352174 65.6145763,47.0477174 61.4333145,51.1961413 C57.2500377,55.3425543 54.8964407,60.9830435 54.8903955,66.8668478 L54.8903955,66.9271739 Z M61.1572505,121.220646 C60.2726365,121.244783 59.4645951,121.731413 59.0313559,122.501576 C58.5981168,123.27375 58.6021469,124.212826 59.0414313,124.980978 C59.5048964,125.765217 70.5676083,144.466304 92.6124294,144.466304 C114.65725,144.466304 125.538606,125.765217 126.042373,124.980978 C126.483672,124.19875 126.483672,123.247609 126.042373,122.467391 C125.601073,121.693207 124.776911,121.218641 123.886252,121.220646 L61.1572505,121.220646 L61.1572505,121.220646 Z" id="Fill-11" fill="#0A0B09" mask="url(#mask-2)"></path><path d="M57.0263653,0.849817916 C25.6638795,0.771576087 0.155160075,26.0381522 0,57.3353261 L0,127.514674 C0.155160075,158.811848 25.6638795,184.078424 57.0263653,184.000182 L105.105838,184.000182 L73.4290019,161.415924 L57.0263653,161.415924 C38.1895292,161.484293 22.8589077,146.312283 22.7702448,127.514674 L22.7702448,57.3353261 C22.9254049,38.5658696 38.2177401,23.4300543 57.0263653,23.4320652 L127.896234,23.4320652 C146.706874,23.4300543 161.997194,38.5658696 162.152354,57.3353261 L162.152354,127.514674 C161.997194,146.28413 146.706874,161.417935 127.896234,161.415924 L114.435593,161.415924 L114.435593,184.000182 L127.896234,184.000182 C159.26275,184.078424 184.775499,158.813859 184.94275,127.514674 L184.94275,57.3353261 C184.775499,26.0361413 159.26275,0.771576087 127.896234,0.849817916 L57.0263653,0.849817916" id="Fill-12" fill="#FF5551" mask="url(#mask-2)"></path></g></g></g></svg> 